<?xml version="1.0" ?><!DOCTYPE svg  PUBLIC '-//W3C//DTD SVG 1.1//EN'  'http://www.w3.org/Graphics/SVG/1.1/DTD/svg11.dtd'><svg enable-background="new 0 0 128 128" id="Layer_1" version="1.1" viewBox="0 0 128 128" xml:space="preserve" xmlns="http://www.w3.org/2000/svg" xmlns:xlink="http://www.w3.org/1999/xlink"><path d="M98,45.4c0-0.8-0.6-1.4-1.4-1.4H24.4c-0.8,0-1.4,0.6-1.4,1.4v52.2c0,0.8,0.6,1.4,1.4,1.4h72.2  c0.8,0,1.4-0.6,1.4-1.4V45.4z" fill="#C1C1C0"/><path d="M98,45.4c0-0.8-0.6-1.4-1.4-1.4H24.4  c-0.8,0-1.4,0.6-1.4,1.4v52.2c0,0.8,0.6,1.4,1.4,1.4h72.2c0.8,0,1.4-0.6,1.4-1.4V45.4z" fill="none" stroke="#3D3D3D" stroke-miterlimit="10" stroke-width="2"/><path d="M104,45.4c0-0.8-0.6-1.4-1.4-1.4H30.4c-0.8,0-1.4,0.6-1.4,1.4v52.2c0,0.8,0.6,1.4,1.4,1.4h72.2  c0.8,0,1.4-0.6,1.4-1.4V45.4z" fill="#E2E2E2"/><path d="M104,45.4c0-0.8-0.6-1.4-1.4-1.4H30.4  c-0.8,0-1.4,0.6-1.4,1.4v52.2c0,0.8,0.6,1.4,1.4,1.4h72.2c0.8,0,1.4-0.6,1.4-1.4V45.4z" fill="none" stroke="#3D3D3D" stroke-miterlimit="10" stroke-width="2"/><path d="M97.6,31H24.9c-0.8,0-1.9,1.1-1.9,1.8v5.6c0,0.8,1.1,1.6,1.9,1.6H99v-7.2C99,32.1,98.3,31,97.6,31z" fill="#C1C1C0"/><path d="M97.6,31H24.9c-0.8,0-1.9,1.1-1.9,1.8v5.6  c0,0.8,1.1,1.6,1.9,1.6H99v-7.2C99,32.1,98.3,31,97.6,31z" fill="none" stroke="#3D3D3D" stroke-miterlimit="10" stroke-width="2"/><path d="M103.1,31H30.4c-0.8,0-1.4,1.1-1.4,1.8V40h74.1c0.8,0,1.9-0.8,1.9-1.6v-5.6C105,32.1,103.9,31,103.1,31z" fill="#C1C1C0"/><path d="M103.1,31H30.4c-0.8,0-1.4,1.1-1.4,1.8V40h74.1  c0.8,0,1.9-0.8,1.9-1.6v-5.6C105,32.1,103.9,31,103.1,31z" fill="none" stroke="#3D3D3D" stroke-miterlimit="10" stroke-width="2"/><rect fill="#E875AE" height="18" width="16" x="36" y="75"/><rect fill="none" height="18" stroke="#3D3D3D" stroke-miterlimit="10" stroke-width="2" width="16" x="36" y="75"/><rect fill="#FFFFFF" height="18" width="15" x="59" y="75"/><rect fill="none" height="18" stroke="#3D3D3D" stroke-miterlimit="10" stroke-width="2" width="15" x="59" y="75"/><rect fill="#DD3B86" height="18" width="16" x="36" y="51"/><rect fill="none" height="18" stroke="#3D3D3D" stroke-miterlimit="10" stroke-width="2" width="16" x="36" y="51"/><rect fill="#C1C1C0" height="18" width="15" x="59" y="51"/><rect fill="none" height="18" stroke="#3D3D3D" stroke-miterlimit="10" stroke-width="2" width="15" x="59" y="51"/><path d="M88,62.4c0-0.8-0.6-1.4-1.4-1.4h-4.2c-0.8,0-1.4,0.6-1.4,1.4v29.2c0,0.8,0.6,1.4,1.4,1.4h4.2  c0.8,0,1.4-0.6,1.4-1.4V62.4z" fill="#C1C1C0"/><path d="M88,62.4c0-0.8-0.6-1.4-1.4-1.4h-4.2c-0.8,0-1.4,0.6-1.4,1.4v29.2c0,0.8,0.6,1.4,1.4,1.4h4.2  c0.8,0,1.4-0.6,1.4-1.4V62.4z" fill="#C1C1C0"/><path d="M88,62.4c0-0.8-0.6-1.4-1.4-1.4h-4.2  c-0.8,0-1.4,0.6-1.4,1.4v29.2c0,0.8,0.6,1.4,1.4,1.4h4.2c0.8,0,1.4-0.6,1.4-1.4V62.4z" fill="none" stroke="#3D3D3D" stroke-miterlimit="10" stroke-width="2"/><path d="M82.1,61h4.3c0.8,0,1.6-0.8,1.6-1.6v-8.2c0-1.4-1.9-1.9-2.7-0.8L81,58.7C80.4,59.6,81,61,82.1,61z" fill="#FFFFFF"/><path d="M82.1,61h4.3c0.8,0,1.6-0.8,1.6-1.6v-8.2c0-1.4-1.9-1.9-2.7-0.8L81,58.7C80.4,59.6,81,61,82.1,61z" fill="#3D3D3D"/><path d="M99,62.4c0-0.8-0.6-1.4-1.4-1.4h-4.2c-0.8,0-1.4,0.6-1.4,1.4v29.2c0,0.8,0.6,1.4,1.4,1.4h4.2  c0.8,0,1.4-0.6,1.4-1.4V62.4z" fill="#C1C1C0"/><path d="M99,62.4c0-0.8-0.6-1.4-1.4-1.4h-4.2c-0.8,0-1.4,0.6-1.4,1.4v29.2c0,0.8,0.6,1.4,1.4,1.4h4.2  c0.8,0,1.4-0.6,1.4-1.4V62.4z" fill="#C1C1C0"/><path d="M99,62.4c0-0.8-0.6-1.4-1.4-1.4h-4.2  c-0.8,0-1.4,0.6-1.4,1.4v29.2c0,0.8,0.6,1.4,1.4,1.4h4.2c0.8,0,1.4-0.6,1.4-1.4V62.4z" fill="none" stroke="#3D3D3D" stroke-miterlimit="10" stroke-width="2"/><path d="M99.6,56.8c0,2.3-1.9,4.2-4.2,4.2c-2.3,0-4.2-1.9-4.2-4.2s1.9-7.1,4.2-7.1C97.8,49.6,99.6,54.4,99.6,56.8z" fill="#3D3D3D"/><rect fill="#3D3D3D" height="5" width="9" x="38" y="39"/><rect fill="#3D3D3D" height="4" width="8" x="80" y="40"/></svg>